HIERARCHY
ROOT Hips
{
	OFFSET 0.000000 95.581902 0.000000
	CHANNELS 6 Xposition Yposition Zposition Xrotation Yrotation Zrotation 
	JOINT Spine
	{
		OFFSET 0.017300 10.574799 -1.117200
		CHANNELS 3 Xrotation Yrotation Zrotation
		JOINT Spine1
		{
			OFFSET 0.013567 8.812370 -0.931000
			CHANNELS 3 Xrotation Yrotation Zrotation
			JOINT Spine1_split
			{
				OFFSET 0.013567 8.812370 -0.931000
				CHANNELS 3 Xrotation Yrotation Zrotation
				JOINT Spine2
				{
					OFFSET 0.013567 8.812370 -0.931000
					CHANNELS 3 Xrotation Yrotation Zrotation
					JOINT Neck
					{
						OFFSET 0.024400 15.862305 -1.675800
						CHANNELS 3 Xrotation Yrotation Zrotation
						JOINT Head
						{
							OFFSET 0.000000 5.563995 0.988100
							CHANNELS 3 Xrotation Yrotation Zrotation
							JOINT HeadTop_End
							{
								OFFSET 0.000000 18.311905 3.086900
								CHANNELS 3 Xrotation Yrotation Zrotation
								End Site
								{
									OFFSET 0.000000 0.000000 0.000000
								}
							}
						}
					}
					JOINT LeftShoulder
					{
						OFFSET 2.967500 6.835098 -0.831300
						CHANNELS 3 Xrotation Yrotation Zrotation
						JOINT LeftShoulder_split
						{
							OFFSET 2.967500 6.835098 -0.831300
							CHANNELS 3 Xrotation Yrotation Zrotation
							JOINT LeftArm
							{
								OFFSET 12.499416 -1.649887 0.026500
								CHANNELS 3 Xrotation Yrotation Zrotation
								JOINT LeftForeArm
								{
									OFFSET 25.574368 0.000000 0.000000
									CHANNELS 3 Xrotation Yrotation Zrotation
									JOINT LeftHand
									{
										OFFSET 21.603390 0.000000 0.000000
										CHANNELS 3 Xrotation Yrotation Zrotation
										JOINT LeftHandThumb1
										{
											OFFSET 3.545601 -1.908203 2.370373
											CHANNELS 3 Xrotation Yrotation Zrotation
											JOINT LeftHandThumb2
											{
												OFFSET 2.175362 -1.255951 1.255946
												CHANNELS 3 Xrotation Yrotation Zrotation
												JOINT LeftHandThumb3
												{
													OFFSET 1.842712 -1.063889 1.063890
													CHANNELS 3 Xrotation Yrotation Zrotation
													JOINT LeftHandThumb4
													{
														OFFSET 1.893875 -1.093430 1.093431
														CHANNELS 3 Xrotation Yrotation Zrotation
														End Site
														{
															OFFSET 0.000000 0.000000 0.000000
														}
													}
												}
											}
										}
										JOINT LeftHandIndex1
										{
											OFFSET 9.909698 0.291367 2.341870
											CHANNELS 3 Xrotation Yrotation Zrotation
											JOINT LeftHandIndex2
											{
												OFFSET 3.776711 0.000000 0.000000
												CHANNELS 3 Xrotation Yrotation Zrotation
												JOINT LeftHandIndex3
												{
													OFFSET 2.543022 0.000000 0.000000
													CHANNELS 3 Xrotation Yrotation Zrotation
													JOINT LeftHandIndex4
													{
														OFFSET 2.529045 0.000000 0.000000
														CHANNELS 3 Xrotation Yrotation Zrotation
														End Site
														{
															OFFSET 0.000000 0.000000 0.000000
														}
													}
												}
											}
										}
										JOINT LeftHandMiddle1
										{
											OFFSET 9.700798 0.000000 0.000000
											CHANNELS 3 Xrotation Yrotation Zrotation
											JOINT LeftHandMiddle2
											{
												OFFSET 4.014610 0.000000 0.000000
												CHANNELS 3 Xrotation Yrotation Zrotation
												JOINT LeftHandMiddle3
												{
													OFFSET 2.996704 0.000000 0.000000
													CHANNELS 3 Xrotation Yrotation Zrotation
													JOINT LeftHandMiddle4
													{
														OFFSET 2.824951 0.000000 0.000000
														CHANNELS 3 Xrotation Yrotation Zrotation
														End Site
														{
															OFFSET 0.000000 0.000000 0.000000
														}
													}
												}
											}
										}
										JOINT LeftHandRing1
										{
											OFFSET 9.308403 0.143555 -2.241665
											CHANNELS 3 Xrotation Yrotation Zrotation
											JOINT LeftHandRing2
											{
												OFFSET 4.019402 0.000000 0.000000
												CHANNELS 3 Xrotation Yrotation Zrotation
												JOINT LeftHandRing3
												{
													OFFSET 2.790878 0.000000 0.000000
													CHANNELS 3 Xrotation Yrotation Zrotation
													JOINT LeftHandRing4
													{
														OFFSET 2.540703 0.000000 0.000000
														CHANNELS 3 Xrotation Yrotation Zrotation
														End Site
														{
															OFFSET 0.000000 0.000000 0.000000
														}
													}
												}
											}
										}
										JOINT LeftHandPinky1
										{
											OFFSET 8.985504 0.221634 -4.712756
											CHANNELS 3 Xrotation Yrotation Zrotation
											JOINT LeftHandPinky2
											{
												OFFSET 3.562500 0.000000 0.000000
												CHANNELS 3 Xrotation Yrotation Zrotation
												JOINT LeftHandPinky3
												{
													OFFSET 2.335197 0.000000 0.000000
													CHANNELS 3 Xrotation Yrotation Zrotation
													JOINT LeftHandPinky4
													{
														OFFSET 2.037300 0.000000 0.000000
														CHANNELS 3 Xrotation Yrotation Zrotation
														End Site
														{
															OFFSET 0.000000 0.000000 0.000000
														}
													}
												}
											}
										}
									}
								}
							}
						}
					}
					JOINT RightShoulder
					{
						OFFSET -2.989600 6.835098 -0.831300
						CHANNELS 3 Xrotation Yrotation Zrotation
						JOINT RightShoulder_split
						{
							OFFSET -2.989600 6.835098 -0.831300
							CHANNELS 3 Xrotation Yrotation Zrotation
							JOINT RightArm
							{
								OFFSET -12.499489 -1.649887 0.026500
								CHANNELS 3 Xrotation Yrotation Zrotation
								JOINT RightForeArm
								{
									OFFSET -25.574368 0.000000 0.000000
									CHANNELS 3 Xrotation Yrotation Zrotation
									JOINT RightHand
									{
										OFFSET -21.603493 0.000000 0.000000
										CHANNELS 3 Xrotation Yrotation Zrotation
										JOINT RightHandThumb1
										{
											OFFSET -3.545418 -1.908173 2.370371
											CHANNELS 3 Xrotation Yrotation Zrotation
											JOINT RightHandThumb2
											{
												OFFSET -2.175354 -1.255936 1.255941
												CHANNELS 3 Xrotation Yrotation Zrotation
												JOINT RightHandThumb3
												{
													OFFSET -1.842712 -1.063889 1.063890
													CHANNELS 3 Xrotation Yrotation Zrotation
													JOINT RightHandThumb4
													{
														OFFSET -1.893852 -1.093414 1.093418
														CHANNELS 3 Xrotation Yrotation Zrotation
														End Site
														{
															OFFSET 0.000000 0.000000 0.000000
														}
													}
												}
											}
										}
										JOINT RightHandPinky1
										{
											OFFSET -8.985298 0.221634 -4.712756
											CHANNELS 3 Xrotation Yrotation Zrotation
											JOINT RightHandPinky2
											{
												OFFSET -3.562500 0.000000 0.000000
												CHANNELS 3 Xrotation Yrotation Zrotation
												JOINT RightHandPinky3
												{
													OFFSET -2.335197 0.000000 0.000000
													CHANNELS 3 Xrotation Yrotation Zrotation
													JOINT RightHandPinky4
													{
														OFFSET -2.037300 0.000000 0.000000
														CHANNELS 3 Xrotation Yrotation Zrotation
														End Site
														{
															OFFSET 0.000000 0.000000 0.000000
														}
													}
												}
											}
										}
										JOINT RightHandRing1
										{
											OFFSET -9.308296 0.143555 -2.241765
											CHANNELS 3 Xrotation Yrotation Zrotation
											JOINT RightHandRing2
											{
												OFFSET -4.019402 0.000000 0.000000
												CHANNELS 3 Xrotation Yrotation Zrotation
												JOINT RightHandRing3
												{
													OFFSET -2.790787 0.000000 0.000000
													CHANNELS 3 Xrotation Yrotation Zrotation
													JOINT RightHandRing4
													{
														OFFSET -2.540703 0.000000 0.000000
														CHANNELS 3 Xrotation Yrotation Zrotation
														End Site
														{
															OFFSET 0.000000 0.000000 0.000000
														}
													}
												}
											}
										}
										JOINT RightHandMiddle1
										{
											OFFSET -9.700600 0.000000 0.000000
											CHANNELS 3 Xrotation Yrotation Zrotation
											JOINT RightHandMiddle2
											{
												OFFSET -4.014610 0.000000 0.000000
												CHANNELS 3 Xrotation Yrotation Zrotation
												JOINT RightHandMiddle3
												{
													OFFSET -2.996696 0.000000 0.000000
													CHANNELS 3 Xrotation Yrotation Zrotation
													JOINT RightHandMiddle4
													{
														OFFSET -2.824944 0.000000 0.000000
														CHANNELS 3 Xrotation Yrotation Zrotation
														End Site
														{
															OFFSET 0.000000 0.000000 0.000000
														}
													}
												}
											}
										}
										JOINT RightHandIndex1
										{
											OFFSET -9.909599 0.291367 2.341871
											CHANNELS 3 Xrotation Yrotation Zrotation
											JOINT RightHandIndex2
											{
												OFFSET -3.776711 0.000000 0.000000
												CHANNELS 3 Xrotation Yrotation Zrotation
												JOINT RightHandIndex3
												{
													OFFSET -2.543022 0.000000 0.000000
													CHANNELS 3 Xrotation Yrotation Zrotation
													JOINT RightHandIndex4
													{
														OFFSET -2.529045 0.000000 0.000000
														CHANNELS 3 Xrotation Yrotation Zrotation
														End Site
														{
															OFFSET 0.000000 0.000000 0.000000
														}
													}
												}
											}
										}
									}
								}
							}
						}
					}
				}
			}
		}
	}
	JOINT LeftUpLeg
	{
		OFFSET 9.789100 -5.875801 -0.583700
		CHANNELS 3 Xrotation Yrotation Zrotation
		JOINT LeftLeg
		{
			OFFSET 0.225677 -41.697334 0.590900
			CHANNELS 3 Xrotation Yrotation Zrotation
			JOINT LeftFoot
			{
				OFFSET -0.225677 -36.855366 -3.032300
				CHANNELS 3 Xrotation Yrotation Zrotation
				JOINT LeftToeBase
				{
					OFFSET -1.166500 -10.835600 12.529100
					CHANNELS 3 Xrotation Yrotation Zrotation
					JOINT LeftToe_End
					{
						OFFSET -0.576300 -0.126600 5.971400
						CHANNELS 3 Xrotation Yrotation Zrotation
						End Site
						{
							OFFSET 0.000000 0.000000 0.000000
						}
					}
				}
			}
		}
	}
	JOINT RightUpLeg
	{
		OFFSET -9.857600 -5.874001 -0.514900
		CHANNELS 3 Xrotation Yrotation Zrotation
		JOINT RightLeg
		{
			OFFSET -0.225670 -41.696266 0.701300
			CHANNELS 3 Xrotation Yrotation Zrotation
			JOINT RightFoot
			{
				OFFSET 0.225670 -36.858433 -3.211600
				CHANNELS 3 Xrotation Yrotation Zrotation
				JOINT RightToeBase
				{
					OFFSET 1.166500 -10.835600 12.670000
					CHANNELS 3 Xrotation Yrotation Zrotation
					JOINT RightToe_End
					{
						OFFSET 0.576300 -0.126600 6.020300
						CHANNELS 3 Xrotation Yrotation Zrotation
						End Site
						{
							OFFSET 0.000000 0.000000 0.000000
						}
					}
				}
			}
		}
	}
}
MOTION
Frames: 4
Frame Time: 0.016667
-0.049921 93.580780 0.027701 -9.647262 5.147520 4.421910 15.796547 -5.164473 -2.224680 2.828926 -1.297233 -0.520220 0.000000 0.000000 0.000000 2.839535 -1.291909 -0.480964 -10.214224 -0.289804 1.928838 0.642531 3.946485 -0.951178 0.000000 -0.000000 0.000000 1.783134 -2.817866 -5.367187 0.000000 0.000000 0.000000 8.347190 -11.449697 -68.845971 0.000015 -33.539033 0.000016 -23.608523 5.693670 2.838400 -3.469769 3.607320 7.883175 9.703619 22.223520 2.891179 -5.879075 9.699137 15.674866 -0.000000 0.000001 0.000002 0.162352 3.429611 -10.498178 0.209650 1.554736 -15.358575 0.209648 1.554737 -15.358585 -0.000000 -0.000000 0.000004 0.362545 4.206372 -18.344242 0.474609 2.311791 -23.200238 0.474606 2.311796 -23.200232 -0.000000 0.000000 0.000001 0.689027 4.991713 -26.673260 0.865737 3.066785 -31.521443 0.865731 3.066783 -31.521449 -0.000000 0.000000 0.000000 0.902505 5.377888 -30.995361 1.110588 3.433622 -35.838177 1.110591 3.433628 -35.838149 0.000000 0.000000 -0.000001 0.815660 9.465461 15.261692 0.000000 0.000000 0.000000 -2.962840 1.768748 67.176707 0.000004 20.011862 -0.000000 1.318001 -7.062431 -8.055828 -1.986174 -5.435665 -3.761593 8.766437 -20.697705 -3.062093 -5.504760 -5.510978 -14.718511 -0.000000 0.000001 0.000002 1.542113 -5.696827 47.168197 2.898969 -4.313215 67.797346 2.788745 -4.266703 66.323930 0.000001 -0.000000 0.000001 2.854993 -6.549362 66.538583 4.919151 -4.649811 93.228203 2.921296 -4.322231 68.093933 -0.000002 0.000001 0.000000 2.592854 -6.426552 62.973429 4.946629 -4.648196 93.567294 3.098014 -4.388969 70.420582 -0.000000 -0.000001 -0.000002 2.057118 -6.108268 55.293557 5.419355 -4.594507 99.429400 3.163288 -4.411567 71.271262 0.000001 0.000001 -0.000001 -14.669515 6.185370 -1.054842 51.693628 -5.522359 -0.818230 -1.000410 0.075787 -1.167830 -1.795232 0.000002 -0.000001 -0.000000 0.000000 0.000000 -1.672853 -6.403460 -3.431383 23.086050 6.095114 3.491165 -12.027346 0.882805 -6.059569 -1.006361 0.000000 -0.000001 -0.000000 0.000000 0.000000 
0.048168 93.637482 1.476346 -9.490198 4.482313 4.493975 15.700563 -4.988718 -2.490646 2.864633 -1.219264 -0.580728 0.000000 0.000000 0.000000 2.874598 -1.216439 -0.545703 -10.293797 -0.276139 1.920122 0.424422 4.055671 -0.967052 0.000000 -0.000000 -0.000000 1.743981 -3.170769 -5.307285 0.000000 0.000000 0.000000 8.560799 -9.744664 -69.768641 0.000001 -31.640752 0.000012 -20.354034 6.201452 1.849371 -3.469769 3.607320 7.883176 9.703617 22.223520 2.891178 -5.879073 9.699137 15.674866 -0.000001 0.000000 -0.000005 0.162352 3.429610 -10.498181 0.209650 1.554737 -15.358568 0.209647 1.554737 -15.358587 -0.000000 0.000000 -0.000001 0.362545 4.206372 -18.344240 0.474609 2.311792 -23.200233 0.474606 2.311796 -23.200233 -0.000000 0.000000 0.000001 0.689027 4.991711 -26.673265 0.865737 3.066786 -31.521449 0.865730 3.066783 -31.521449 0.000000 0.000000 -0.000000 0.902505 5.377886 -30.995368 1.110589 3.433621 -35.838173 1.110591 3.433628 -35.838149 0.000000 0.000001 -0.000000 0.830231 9.367766 15.335607 0.000000 0.000000 0.000000 -2.994204 1.838901 66.790453 0.000001 20.328287 0.000026 1.692689 -7.849706 -8.272419 -1.986174 -5.435664 -3.761589 8.766438 -20.697702 -3.062095 -5.504757 -5.510976 -14.718515 -0.000000 0.000002 -0.000003 1.542113 -5.696826 47.168200 2.898968 -4.313216 67.797346 2.788745 -4.266706 66.323930 -0.000000 -0.000000 0.000001 2.854994 -6.549362 66.538583 4.919152 -4.649809 93.228203 2.921296 -4.322230 68.093940 -0.000002 -0.000001 0.000001 2.592855 -6.426550 62.973422 4.946627 -4.648193 93.567294 3.098014 -4.388969 70.420589 0.000000 -0.000002 0.000001 2.057119 -6.108268 55.293557 5.419353 -4.594507 99.429407 3.163287 -4.411568 71.271255 -0.000002 0.000000 0.000001 -15.721951 6.471105 -2.552840 47.486357 -5.917197 -0.816932 0.002588 -0.086105 -0.103787 -1.795219 -0.000001 -0.000002 -0.000000 0.000000 0.000001 -0.615165 -6.568217 -3.662198 22.649242 6.082212 3.508957 -12.745062 1.764555 -5.998448 -1.006361 -0.000001 0.000000 -0.000000 0.000000 0.000000 
0.173463 93.651680 3.048089 -9.309456 3.886290 4.477910 15.534263 -4.808195 -2.639421 2.925967 -1.153219 -0.636157 0.000000 0.000000 0.000000 2.934973 -1.152664 -0.605375 -10.373089 -0.263188 1.911383 0.194516 4.155699 -0.959679 -0.000000 -0.000000 0.000000 1.706082 -3.362186 -5.359654 0.000000 0.000000 0.000000 8.566216 -8.219126 -70.564843 0.000007 -29.568934 0.000033 -16.683217 6.782383 0.412786 -3.469769 3.607320 7.883174 9.703619 22.223521 2.891178 -5.879074 9.699133 15.674859 -0.000000 0.000000 0.000002 0.162351 3.429609 -10.498177 0.209649 1.554737 -15.358572 0.209648 1.554736 -15.358585 0.000000 -0.000000 0.000001 0.362545 4.206370 -18.344240 0.474609 2.311792 -23.200235 0.474606 2.311796 -23.200228 0.000000 0.000000 -0.000002 0.689027 4.991712 -26.673260 0.865737 3.066785 -31.521449 0.865731 3.066783 -31.521449 -0.000000 0.000001 -0.000000 0.902505 5.377886 -30.995368 1.110589 3.433621 -35.838177 1.110592 3.433628 -35.838149 0.000000 -0.000000 -0.000000 0.840507 9.299991 15.386818 0.000000 0.000000 0.000000 -3.179692 1.962934 66.379214 -0.000002 20.310421 0.000003 1.979816 -8.025346 -8.406074 -1.986174 -5.435664 -3.761590 8.766437 -20.697702 -3.062093 -5.504756 -5.510977 -14.718513 -0.000000 0.000001 0.000003 1.542112 -5.696826 47.168200 2.898967 -4.313215 67.797346 2.788746 -4.266706 66.323930 0.000000 -0.000000 0.000001 2.854993 -6.549361 66.538583 4.919152 -4.649806 93.228203 2.921299 -4.322232 68.093933 -0.000003 -0.000001 0.000004 2.592855 -6.426550 62.973429 4.946628 -4.648194 93.567294 3.098017 -4.388969 70.420582 0.000001 -0.000001 -0.000000 2.057119 -6.108266 55.293557 5.419355 -4.594509 99.429400 3.163289 -4.411569 71.271255 0.000002 -0.000000 -0.000001 -17.080756 6.414154 -3.624376 43.771455 -5.763258 -0.782449 0.229647 0.420448 -0.487755 -1.795218 -0.000002 0.000005 -0.000000 0.000000 0.000000 0.528059 -6.647173 -3.798676 22.181659 6.057792 3.531841 -13.546146 2.497024 -5.904807 -1.006363 -0.000000 0.000001 -0.000000 -0.000000 -0.000000 
0.312530 93.723495 4.798905 -9.114068 3.220980 4.482767 15.357259 -4.613218 -2.830548 2.992096 -1.077589 -0.696962 0.000000 0.000000 0.000000 3.000079 -1.079578 -0.670915 -10.460872 -0.248840 1.903442 -0.064419 4.273280 -0.953784 -0.000000 0.000000 -0.000000 1.662388 -3.586408 -5.415227 0.000000 0.000000 0.000000 8.625619 -6.507511 -71.432345 -0.000006 -27.273625 0.000008 -12.557444 7.323400 -1.225765 -3.469769 3.607320 7.883173 9.703620 22.223527 2.891178 -5.879072 9.699136 15.674864 0.000002 0.000002 0.000003 0.162352 3.429609 -10.498181 0.209650 1.554737 -15.358573 0.209648 1.554737 -15.358587 0.000001 -0.000001 -0.000003 0.362545 4.206371 -18.344242 0.474609 2.311791 -23.200233 0.474606 2.311797 -23.200233 -0.000000 -0.000000 0.000001 0.689027 4.991711 -26.673262 0.865737 3.066786 -31.521446 0.865731 3.066784 -31.521453 0.000000 -0.000000 0.000000 0.902504 5.377886 -30.995361 1.110588 3.433621 -35.838180 1.110590 3.433629 -35.838146 0.000001 0.000001 0.000001 0.852756 9.220246 15.447171 0.000000 0.000000 0.000000 -3.645491 2.192714 65.984231 0.000006 19.518044 -0.000023 2.258815 -7.623027 -8.499326 -1.986174 -5.435665 -3.761591 8.766439 -20.697703 -3.062091 -5.504759 -5.510975 -14.718513 0.000001 0.000003 0.000001 1.542112 -5.696826 47.168197 2.898969 -4.313215 67.797346 2.788744 -4.266707 66.323930 0.000002 0.000000 -0.000001 2.854992 -6.549362 66.538583 4.919152 -4.649808 93.228203 2.921295 -4.322229 68.093940 0.000000 -0.000001 0.000000 2.592852 -6.426551 62.973422 4.946629 -4.648196 93.567294 3.098019 -4.388969 70.420582 0.000000 -0.000001 0.000001 2.057119 -6.108266 55.293557 5.419351 -4.594504 99.429400 3.163287 -4.411569 71.271262 0.000002 -0.000000 -0.000001 -17.855889 6.276823 -4.770417 38.270308 -5.583975 -0.777137 1.024815 1.018645 -0.588317 -1.795222 0.000002 0.000001 -0.000001 0.000000 0.000000 2.033481 -6.696908 -3.957365 21.141380 6.013660 3.549631 -14.157483 3.249235 -5.736630 -1.002989 -0.000003 -0.000001 -0.000000 -0.000000 -0.000000 
